#!OML:ASF H:\Terrain\Patient Classification 1\Walking\liu\liu.ASF
:FULLY-SPECIFIED
:DEGREES
49
root 17.188040 31.721800 -58.921001 13.335860 -20.347401 -6.369780
lowerback -13.550520 1.204700 0.223608
upperback -4.491560 1.437314 6.989220
thorax 2.874840 0.726414 7.202840
lowerneck -42.638599 -8.494680 -25.849400
upperneck 33.952202 -9.960620 28.777000
head 19.187019 -3.214260 13.067620
rclavicle 0.000000 0.000000
rhumerus -94.252800 39.557999 -189.406799
rradius 98.490997
rwrist -50.081600
rhand -60.938999 -57.578999
rfingers 14.250040
rthumb -7.541620 -117.471802
lclavicle 0.000000 0.000000
lhumerus -90.279404 -6.327720 180.125595
lradius 42.230999
lwrist -8.169700
lhand 8.092380 -32.828400
lfingers 14.250040
lthumb 58.919601 22.539000
rfemur 33.550598 8.704720 42.434399
rtibia 39.081402
rfoot 6.778220 0.499360
rtoes -30.315599
lfemur -79.235001 16.821220 -35.570801
ltibia 77.055199
lfoot -8.235200 13.450560
ltoes -4.084660
50
root 17.264521 31.761000 -58.614601 12.745640 -20.533001 -5.619980
lowerback -12.858740 1.208520 -0.157949
upperback -4.545560 1.490550 6.595100
thorax 2.432000 0.757504 7.000460
lowerneck -42.632401 -8.518480 -25.745199
upperneck 33.970001 -10.079480 28.986601
head 19.215759 -3.240600 13.111220
rclavicle 0.000000 0.000000
rhumerus -93.562202 38.284599 -189.261398
rradius 95.633202
rwrist -48.809799
rhand -60.223000 -55.551800
rfingers 14.250040
rthumb -6.850220 -115.456398
lclavicle 0.000000 0.000000
lhumerus -89.782600 -6.193820 179.370605
lradius 41.539600
lwrist -8.649300
lhand 8.735420 -32.023602
lfingers 14.250040
lthumb 59.533401 23.235001
rfemur 31.596600 7.311720 40.818401
rtibia 44.794201
rfoot 8.257460 0.698344
rtoes -31.197800
lfemur -77.418800 16.899139 -36.709999
ltibia 76.926003
lfoot -8.943180 13.278380
ltoes -4.321500
51
root 17.330280 31.797800 -58.330002 12.539500 -20.899401 -5.050360
lowerback -12.108640 1.386108 -0.579850
upperback -4.923180 1.779256 6.317460
thorax 1.606220 0.913562 6.953820
lowerneck -42.830200 -8.667960 -26.086800
upperneck 34.690800 -10.323200 29.383801
head 19.564640 -3.326980 13.316140
rclavicle 0.000000 0.000000
rhumerus -93.093002 36.623600 -188.860794
rradius 92.749199
rwrist -47.185600
rhand -58.391800 -52.932999
rfingers 14.250040
rthumb -5.081740 -112.862198
lclavicle 0.000000 0.000000
lhumerus -89.389801 -5.492240 178.377594
lradius 40.621399
lwrist -9.856140
lhand 9.280720 -32.296200
lfingers 14.250040
lthumb 60.053799 22.868601
rfemur 29.125401 6.108000 39.442200
rtibia 50.470200
rfoot 10.520420 0.121599
rtoes -29.835199
lfemur -76.021400 17.142300 -37.612000
ltibia 76.735802
lfoot -10.448220 13.139380
ltoes -3.913800
52
root 17.403061 31.855200 -58.030602 12.705840 -21.381001 -4.344300
lowerback -12.393900 1.687426 -0.928684
upperback -4.964980 2.202320 6.004160
thorax 1.694906 1.125510 6.858680
lowerneck -42.888401 -8.929140 -25.923401
upperneck 34.708199 -10.618420 28.872200
head 19.605780 -3.505000 13.049320
rclavicle 0.000000 -0.000000
rhumerus -92.597397 35.221199 -188.311798
rradius 90.904198
rwrist -46.449200
rhand -58.319801 -53.296600
rfingers 14.250040
rthumb -5.012260 -113.226601
lclavicle 0.000000 -0.000000
lhumerus -88.438797 -5.132280 177.689606
lradius 39.921398
lwrist -11.543540
lhand 8.493660 -33.264198
lfingers 14.250040
lthumb 59.302601 22.035400
rfemur 26.140400 5.014580 37.826801
rtibia 56.223999
rfoot 12.864220 -0.758746
rtoes -25.205200
lfemur -74.907402 17.160360 -38.650398
ltibia 76.480400
lfoot -11.996340 13.164740
ltoes -1.433256
53
root 17.471979 31.927601 -57.741199 12.982180 -21.877600 -3.818920
lowerback -12.825880 1.730058 -1.302954
upperback -4.856700 2.275060 5.933760
thorax 2.035680 1.158796 7.012680
lowerneck -43.424198 -8.989080 -25.742201
upperneck 34.657600 -10.571240 28.361200
head 19.654560 -3.506440 12.833160
rclavicle 0.000000 0.000000
rhumerus -91.213997 34.641201 -187.912598
rradius 88.650200
rwrist -46.001801
rhand -59.610001 -56.244598
rfingers 14.250040
rthumb -6.258200 -116.158203
lclavicle 0.000000 0.000000
lhumerus -87.575203 -4.874060 177.279602
lradius 39.783199
lwrist -12.515880
lhand 7.315400 -33.394001
lfingers 14.250040
lthumb 58.177799 22.102800
rfemur 22.871599 4.084920 36.556198
rtibia 62.010799
rfoot 14.691620 -1.611590
rtoes -23.466801
lfemur -73.930397 17.390120 -39.618401
ltibia 76.116600
lfoot -12.833140 13.163920
ltoes -1.443738
